<svg xmlns="http://www.w3.org/2000/svg" width="600" height="440" viewBox="0 0 600 440"><rect width="600" height="440" rx="8" fill="#fffaf0"/><g font-family="Georgia,serif" font-size="26" fill="#382d29"><text x="24" y="42">Model bacterium · A to E</text><rect x="72" y="119" width="442" height="220" rx="110" fill="#bc945c" stroke="#694837" stroke-width="4"/><rect x="85" y="132" width="416" height="194" rx="97" fill="#8b2332"/><rect x="92" y="139" width="402" height="180" rx="90" fill="#f5e6c9"/>
<path d="M187 231 C170 170 244 167 260 207 C284 168 347 187 327 232 C340 286 265 277 255 246 C216 283 162 269 187 231Z" fill="none" stroke="#493d66" stroke-width="6"/><ellipse cx="377" cy="205" rx="20" ry="15" fill="none" stroke="#493d66" stroke-width="5"/><ellipse cx="397" cy="274" rx="18" ry="14" fill="none" stroke="#493d66" stroke-width="5"/>
<g fill="none" stroke="#382d29" stroke-width="2"><path d="M116 82 L132 138"/><path d="M458 82 L447 146"/><path d="M550 233 L476 235"/><path d="M232 386 L230 260"/><path d="M420 382 L400 289"/></g>
<text x="99" y="82">A</text><text x="449" y="82">B</text><text x="552" y="238">C</text><text x="218" y="411">D</text><text x="407" y="412">E</text><text x="20" y="438" font-size="18">Simplified model; not every bacterium carries plasmids.</text></g></svg>
