<svg xmlns="http://www.w3.org/2000/svg" viewBox="0 0 960 1010" role="img" aria-labelledby="title desc"><title id="title">First five unbranched alkanes</title><desc id="desc">Original displayed formulas with every carbon, hydrogen and bond shown. Carbon has four bond contributions. Two-dimensional connectivity, not realistic geometry.</desc><rect width="960" height="1010" fill="#f7f0e4"/>
<text x="30" y="36" font-family="Georgia,serif" font-size="24" fill="#2e2724">First five unbranched alkanes</text>
<text x="30" y="67" font-family="Arial,sans-serif" font-size="16" fill="#51463f">Every atom and bond shown; schematic connectivity, not molecular geometry.</text>
<rect x="30" y="90" width="440" height="284" fill="none" stroke="#cfc2af"/><text x="44" y="116" font-family="Arial,sans-serif" font-size="18" fill="#2e2724">methane</text>
<text x="250.0" y="246" text-anchor="middle" font-family="Arial,sans-serif" font-size="19" fill="#2e2724">C</text>
<path d="M250.0 228.0 L250.0 214.0" stroke="#51463f" stroke-width="1.8"/><text x="250.0" y="208" text-anchor="middle" font-family="Arial,sans-serif" font-size="18" fill="#2e2724">H</text>
<path d="M250.0 252.0 L250.0 266.0" stroke="#51463f" stroke-width="1.8"/><text x="250.0" y="284" text-anchor="middle" font-family="Arial,sans-serif" font-size="18" fill="#2e2724">H</text>
<path d="M262.0 240.0 L276.0 240.0" stroke="#51463f" stroke-width="1.8"/><text x="288.0" y="246" text-anchor="middle" font-family="Arial,sans-serif" font-size="18" fill="#2e2724">H</text>
<path d="M238.0 240.0 L224.0 240.0" stroke="#51463f" stroke-width="1.8"/><text x="212.0" y="246" text-anchor="middle" font-family="Arial,sans-serif" font-size="18" fill="#2e2724">H</text>
<rect x="490" y="90" width="440" height="284" fill="none" stroke="#cfc2af"/><text x="504" y="116" font-family="Arial,sans-serif" font-size="18" fill="#2e2724">ethane</text>
<path d="M694.5 240 L725.5 240" stroke="#8c2635" stroke-width="2"/>
<text x="682.5" y="246" text-anchor="middle" font-family="Arial,sans-serif" font-size="19" fill="#2e2724">C</text>
<path d="M682.5 228.0 L682.5 214.0" stroke="#51463f" stroke-width="1.8"/><text x="682.5" y="208" text-anchor="middle" font-family="Arial,sans-serif" font-size="18" fill="#2e2724">H</text>
<path d="M682.5 252.0 L682.5 266.0" stroke="#51463f" stroke-width="1.8"/><text x="682.5" y="284" text-anchor="middle" font-family="Arial,sans-serif" font-size="18" fill="#2e2724">H</text>
<path d="M670.5 240.0 L656.5 240.0" stroke="#51463f" stroke-width="1.8"/><text x="644.5" y="246" text-anchor="middle" font-family="Arial,sans-serif" font-size="18" fill="#2e2724">H</text>
<text x="737.5" y="246" text-anchor="middle" font-family="Arial,sans-serif" font-size="19" fill="#2e2724">C</text>
<path d="M737.5 228.0 L737.5 214.0" stroke="#51463f" stroke-width="1.8"/><text x="737.5" y="208" text-anchor="middle" font-family="Arial,sans-serif" font-size="18" fill="#2e2724">H</text>
<path d="M737.5 252.0 L737.5 266.0" stroke="#51463f" stroke-width="1.8"/><text x="737.5" y="284" text-anchor="middle" font-family="Arial,sans-serif" font-size="18" fill="#2e2724">H</text>
<path d="M749.5 240.0 L763.5 240.0" stroke="#51463f" stroke-width="1.8"/><text x="775.5" y="246" text-anchor="middle" font-family="Arial,sans-serif" font-size="18" fill="#2e2724">H</text>
<rect x="30" y="390" width="440" height="284" fill="none" stroke="#cfc2af"/><text x="44" y="416" font-family="Arial,sans-serif" font-size="18" fill="#2e2724">propane</text>
<path d="M207.0 540 L238.0 540" stroke="#8c2635" stroke-width="2"/>
<path d="M262.0 540 L293.0 540" stroke="#8c2635" stroke-width="2"/>
<text x="195.0" y="546" text-anchor="middle" font-family="Arial,sans-serif" font-size="19" fill="#2e2724">C</text>
<path d="M195.0 528.0 L195.0 514.0" stroke="#51463f" stroke-width="1.8"/><text x="195.0" y="508" text-anchor="middle" font-family="Arial,sans-serif" font-size="18" fill="#2e2724">H</text>
<path d="M195.0 552.0 L195.0 566.0" stroke="#51463f" stroke-width="1.8"/><text x="195.0" y="584" text-anchor="middle" font-family="Arial,sans-serif" font-size="18" fill="#2e2724">H</text>
<path d="M183.0 540.0 L169.0 540.0" stroke="#51463f" stroke-width="1.8"/><text x="157.0" y="546" text-anchor="middle" font-family="Arial,sans-serif" font-size="18" fill="#2e2724">H</text>
<text x="250.0" y="546" text-anchor="middle" font-family="Arial,sans-serif" font-size="19" fill="#2e2724">C</text>
<path d="M250.0 528.0 L250.0 514.0" stroke="#51463f" stroke-width="1.8"/><text x="250.0" y="508" text-anchor="middle" font-family="Arial,sans-serif" font-size="18" fill="#2e2724">H</text>
<path d="M250.0 552.0 L250.0 566.0" stroke="#51463f" stroke-width="1.8"/><text x="250.0" y="584" text-anchor="middle" font-family="Arial,sans-serif" font-size="18" fill="#2e2724">H</text>
<text x="305.0" y="546" text-anchor="middle" font-family="Arial,sans-serif" font-size="19" fill="#2e2724">C</text>
<path d="M305.0 528.0 L305.0 514.0" stroke="#51463f" stroke-width="1.8"/><text x="305.0" y="508" text-anchor="middle" font-family="Arial,sans-serif" font-size="18" fill="#2e2724">H</text>
<path d="M305.0 552.0 L305.0 566.0" stroke="#51463f" stroke-width="1.8"/><text x="305.0" y="584" text-anchor="middle" font-family="Arial,sans-serif" font-size="18" fill="#2e2724">H</text>
<path d="M317.0 540.0 L331.0 540.0" stroke="#51463f" stroke-width="1.8"/><text x="343.0" y="546" text-anchor="middle" font-family="Arial,sans-serif" font-size="18" fill="#2e2724">H</text>
<rect x="490" y="390" width="440" height="284" fill="none" stroke="#cfc2af"/><text x="504" y="416" font-family="Arial,sans-serif" font-size="18" fill="#2e2724">butane</text>
<path d="M639.5 540 L670.5 540" stroke="#8c2635" stroke-width="2"/>
<path d="M694.5 540 L725.5 540" stroke="#8c2635" stroke-width="2"/>
<path d="M749.5 540 L780.5 540" stroke="#8c2635" stroke-width="2"/>
<text x="627.5" y="546" text-anchor="middle" font-family="Arial,sans-serif" font-size="19" fill="#2e2724">C</text>
<path d="M627.5 528.0 L627.5 514.0" stroke="#51463f" stroke-width="1.8"/><text x="627.5" y="508" text-anchor="middle" font-family="Arial,sans-serif" font-size="18" fill="#2e2724">H</text>
<path d="M627.5 552.0 L627.5 566.0" stroke="#51463f" stroke-width="1.8"/><text x="627.5" y="584" text-anchor="middle" font-family="Arial,sans-serif" font-size="18" fill="#2e2724">H</text>
<path d="M615.5 540.0 L601.5 540.0" stroke="#51463f" stroke-width="1.8"/><text x="589.5" y="546" text-anchor="middle" font-family="Arial,sans-serif" font-size="18" fill="#2e2724">H</text>
<text x="682.5" y="546" text-anchor="middle" font-family="Arial,sans-serif" font-size="19" fill="#2e2724">C</text>
<path d="M682.5 528.0 L682.5 514.0" stroke="#51463f" stroke-width="1.8"/><text x="682.5" y="508" text-anchor="middle" font-family="Arial,sans-serif" font-size="18" fill="#2e2724">H</text>
<path d="M682.5 552.0 L682.5 566.0" stroke="#51463f" stroke-width="1.8"/><text x="682.5" y="584" text-anchor="middle" font-family="Arial,sans-serif" font-size="18" fill="#2e2724">H</text>
<text x="737.5" y="546" text-anchor="middle" font-family="Arial,sans-serif" font-size="19" fill="#2e2724">C</text>
<path d="M737.5 528.0 L737.5 514.0" stroke="#51463f" stroke-width="1.8"/><text x="737.5" y="508" text-anchor="middle" font-family="Arial,sans-serif" font-size="18" fill="#2e2724">H</text>
<path d="M737.5 552.0 L737.5 566.0" stroke="#51463f" stroke-width="1.8"/><text x="737.5" y="584" text-anchor="middle" font-family="Arial,sans-serif" font-size="18" fill="#2e2724">H</text>
<text x="792.5" y="546" text-anchor="middle" font-family="Arial,sans-serif" font-size="19" fill="#2e2724">C</text>
<path d="M792.5 528.0 L792.5 514.0" stroke="#51463f" stroke-width="1.8"/><text x="792.5" y="508" text-anchor="middle" font-family="Arial,sans-serif" font-size="18" fill="#2e2724">H</text>
<path d="M792.5 552.0 L792.5 566.0" stroke="#51463f" stroke-width="1.8"/><text x="792.5" y="584" text-anchor="middle" font-family="Arial,sans-serif" font-size="18" fill="#2e2724">H</text>
<path d="M804.5 540.0 L818.5 540.0" stroke="#51463f" stroke-width="1.8"/><text x="830.5" y="546" text-anchor="middle" font-family="Arial,sans-serif" font-size="18" fill="#2e2724">H</text>
<rect x="30" y="690" width="440" height="284" fill="none" stroke="#cfc2af"/><text x="44" y="716" font-family="Arial,sans-serif" font-size="18" fill="#2e2724">pentane</text>
<path d="M152.0 840 L183.0 840" stroke="#8c2635" stroke-width="2"/>
<path d="M207.0 840 L238.0 840" stroke="#8c2635" stroke-width="2"/>
<path d="M262.0 840 L293.0 840" stroke="#8c2635" stroke-width="2"/>
<path d="M317.0 840 L348.0 840" stroke="#8c2635" stroke-width="2"/>
<text x="140.0" y="846" text-anchor="middle" font-family="Arial,sans-serif" font-size="19" fill="#2e2724">C</text>
<path d="M140.0 828.0 L140.0 814.0" stroke="#51463f" stroke-width="1.8"/><text x="140.0" y="808" text-anchor="middle" font-family="Arial,sans-serif" font-size="18" fill="#2e2724">H</text>
<path d="M140.0 852.0 L140.0 866.0" stroke="#51463f" stroke-width="1.8"/><text x="140.0" y="884" text-anchor="middle" font-family="Arial,sans-serif" font-size="18" fill="#2e2724">H</text>
<path d="M128.0 840.0 L114.0 840.0" stroke="#51463f" stroke-width="1.8"/><text x="102.0" y="846" text-anchor="middle" font-family="Arial,sans-serif" font-size="18" fill="#2e2724">H</text>
<text x="195.0" y="846" text-anchor="middle" font-family="Arial,sans-serif" font-size="19" fill="#2e2724">C</text>
<path d="M195.0 828.0 L195.0 814.0" stroke="#51463f" stroke-width="1.8"/><text x="195.0" y="808" text-anchor="middle" font-family="Arial,sans-serif" font-size="18" fill="#2e2724">H</text>
<path d="M195.0 852.0 L195.0 866.0" stroke="#51463f" stroke-width="1.8"/><text x="195.0" y="884" text-anchor="middle" font-family="Arial,sans-serif" font-size="18" fill="#2e2724">H</text>
<text x="250.0" y="846" text-anchor="middle" font-family="Arial,sans-serif" font-size="19" fill="#2e2724">C</text>
<path d="M250.0 828.0 L250.0 814.0" stroke="#51463f" stroke-width="1.8"/><text x="250.0" y="808" text-anchor="middle" font-family="Arial,sans-serif" font-size="18" fill="#2e2724">H</text>
<path d="M250.0 852.0 L250.0 866.0" stroke="#51463f" stroke-width="1.8"/><text x="250.0" y="884" text-anchor="middle" font-family="Arial,sans-serif" font-size="18" fill="#2e2724">H</text>
<text x="305.0" y="846" text-anchor="middle" font-family="Arial,sans-serif" font-size="19" fill="#2e2724">C</text>
<path d="M305.0 828.0 L305.0 814.0" stroke="#51463f" stroke-width="1.8"/><text x="305.0" y="808" text-anchor="middle" font-family="Arial,sans-serif" font-size="18" fill="#2e2724">H</text>
<path d="M305.0 852.0 L305.0 866.0" stroke="#51463f" stroke-width="1.8"/><text x="305.0" y="884" text-anchor="middle" font-family="Arial,sans-serif" font-size="18" fill="#2e2724">H</text>
<text x="360.0" y="846" text-anchor="middle" font-family="Arial,sans-serif" font-size="19" fill="#2e2724">C</text>
<path d="M360.0 828.0 L360.0 814.0" stroke="#51463f" stroke-width="1.8"/><text x="360.0" y="808" text-anchor="middle" font-family="Arial,sans-serif" font-size="18" fill="#2e2724">H</text>
<path d="M360.0 852.0 L360.0 866.0" stroke="#51463f" stroke-width="1.8"/><text x="360.0" y="884" text-anchor="middle" font-family="Arial,sans-serif" font-size="18" fill="#2e2724">H</text>
<path d="M372.0 840.0 L386.0 840.0" stroke="#51463f" stroke-width="1.8"/><text x="398.0" y="846" text-anchor="middle" font-family="Arial,sans-serif" font-size="18" fill="#2e2724">H</text>
</svg>
