<svg xmlns="http://www.w3.org/2000/svg" width="600" height="1040" viewBox="0 0 600 1040" role="img" aria-labelledby="title desc"><title id="title">Original organic shared-electron models</title><desc id="desc">Each panel shows outer-electron pairs and an explicit original-atom key; layouts do not specify molecular shapes.</desc><rect width="600" height="1040" fill="#faf7ef"/><g font-family="Arial,sans-serif" fill="#352b25">
<text x="25" y="30" font-size="22" font-weight="700">Shared pairs and lone pairs</text>
<text x="25" y="57" font-size="17">Outer-electron bookkeeping, not molecular shapes.</text>
<g data-molecule="CH4" transform="translate(0,80)"><path d="M20 0H580" stroke="#c5b7a9"/><text x="25" y="27" font-size="20" font-weight="700">Methane · CH₄ · 8 electrons</text>
<text data-atom="C1" data-element="C" x="300" y="152" text-anchor="middle" font-size="23">C</text>
<text data-atom="H1" data-element="H" x="190" y="152" text-anchor="middle" font-size="23">H</text>
<text data-atom="H2" data-element="H" x="410" y="152" text-anchor="middle" font-size="23">H</text>
<text data-atom="H3" data-element="H" x="300" y="62" text-anchor="middle" font-size="23">H</text>
<text data-atom="H4" data-element="H" x="300" y="242" text-anchor="middle" font-size="23">H</text>
<circle data-owner="C1" data-electron="dot" data-kind="bond" data-edge="C1-H1" cx="250.000" cy="145.000" r="3.5" fill="#8c4c3f"/>
<path data-owner="H1" data-electron="cross" data-kind="bond" data-edge="C1-H1" d="M236.000 141.000l8 8m-8 0l8 -8" stroke="#574333" stroke-width="2"/>
<circle data-owner="C1" data-electron="dot" data-kind="bond" data-edge="C1-H2" cx="350.000" cy="145.000" r="3.5" fill="#8c4c3f"/>
<path data-owner="H2" data-electron="cross" data-kind="bond" data-edge="C1-H2" d="M356.000 141.000l8 8m-8 0l8 -8" stroke="#574333" stroke-width="2"/>
<circle data-owner="C1" data-electron="dot" data-kind="bond" data-edge="C1-H3" cx="300.000" cy="105.000" r="3.5" fill="#8c4c3f"/>
<path data-owner="H3" data-electron="cross" data-kind="bond" data-edge="C1-H3" d="M296.000 91.000l8 8m-8 0l8 -8" stroke="#574333" stroke-width="2"/>
<circle data-owner="C1" data-electron="dot" data-kind="bond" data-edge="C1-H4" cx="300.000" cy="185.000" r="3.5" fill="#8c4c3f"/>
<path data-owner="H4" data-electron="cross" data-kind="bond" data-edge="C1-H4" d="M296.000 191.000l8 8m-8 0l8 -8" stroke="#574333" stroke-width="2"/>
<text x="25" y="278" font-size="17">• C · × H atoms</text>
</g>
<g data-molecule="C2H6" transform="translate(0,400)"><path d="M20 0H580" stroke="#c5b7a9"/><text x="25" y="27" font-size="20" font-weight="700">Ethane · C₂H₆ · 14 electrons</text>
<text data-atom="C1" data-element="C" x="230" y="152" text-anchor="middle" font-size="23">C</text>
<text data-atom="C2" data-element="C" x="370" y="152" text-anchor="middle" font-size="23">C</text>
<text data-atom="H1" data-element="H" x="120" y="152" text-anchor="middle" font-size="23">H</text>
<text data-atom="H2" data-element="H" x="230" y="62" text-anchor="middle" font-size="23">H</text>
<text data-atom="H3" data-element="H" x="230" y="242" text-anchor="middle" font-size="23">H</text>
<text data-atom="H4" data-element="H" x="480" y="152" text-anchor="middle" font-size="23">H</text>
<text data-atom="H5" data-element="H" x="370" y="62" text-anchor="middle" font-size="23">H</text>
<text data-atom="H6" data-element="H" x="370" y="242" text-anchor="middle" font-size="23">H</text>
<circle data-owner="C1" data-electron="dot" data-kind="bond" data-edge="C1-C2" cx="295.000" cy="145.000" r="3.5" fill="#8c4c3f"/>
<path data-owner="C2" data-electron="cross" data-kind="bond" data-edge="C1-C2" d="M301.000 141.000l8 8m-8 0l8 -8" stroke="#574333" stroke-width="2"/>
<circle data-owner="C1" data-electron="dot" data-kind="bond" data-edge="C1-H1" cx="180.000" cy="145.000" r="3.5" fill="#8c4c3f"/>
<path data-owner="H1" data-electron="cross" data-kind="bond" data-edge="C1-H1" d="M166.000 141.000l8 8m-8 0l8 -8" stroke="#574333" stroke-width="2"/>
<circle data-owner="C1" data-electron="dot" data-kind="bond" data-edge="C1-H2" cx="230.000" cy="105.000" r="3.5" fill="#8c4c3f"/>
<path data-owner="H2" data-electron="cross" data-kind="bond" data-edge="C1-H2" d="M226.000 91.000l8 8m-8 0l8 -8" stroke="#574333" stroke-width="2"/>
<circle data-owner="C1" data-electron="dot" data-kind="bond" data-edge="C1-H3" cx="230.000" cy="185.000" r="3.5" fill="#8c4c3f"/>
<path data-owner="H3" data-electron="cross" data-kind="bond" data-edge="C1-H3" d="M226.000 191.000l8 8m-8 0l8 -8" stroke="#574333" stroke-width="2"/>
<path data-owner="C2" data-electron="cross" data-kind="bond" data-edge="C2-H4" d="M416.000 141.000l8 8m-8 0l8 -8" stroke="#574333" stroke-width="2"/>
<circle data-owner="H4" data-electron="dot" data-kind="bond" data-edge="C2-H4" cx="430.000" cy="145.000" r="3.5" fill="#8c4c3f"/>
<path data-owner="C2" data-electron="cross" data-kind="bond" data-edge="C2-H5" d="M366.000 101.000l8 8m-8 0l8 -8" stroke="#574333" stroke-width="2"/>
<circle data-owner="H5" data-electron="dot" data-kind="bond" data-edge="C2-H5" cx="370.000" cy="95.000" r="3.5" fill="#8c4c3f"/>
<path data-owner="C2" data-electron="cross" data-kind="bond" data-edge="C2-H6" d="M366.000 181.000l8 8m-8 0l8 -8" stroke="#574333" stroke-width="2"/>
<circle data-owner="H6" data-electron="dot" data-kind="bond" data-edge="C2-H6" cx="370.000" cy="195.000" r="3.5" fill="#8c4c3f"/>
<text x="25" y="278" font-size="17">• left C · × right C</text>
<text x="25" y="303" font-size="17">Each H uses the opposite mark to its bonded C.</text>
</g>
<g data-molecule="C2H4" transform="translate(0,720)"><path d="M20 0H580" stroke="#c5b7a9"/><text x="25" y="27" font-size="20" font-weight="700">Ethene · C₂H₄ · 12 electrons</text>
<text data-atom="C1" data-element="C" x="230" y="152" text-anchor="middle" font-size="23">C</text>
<text data-atom="C2" data-element="C" x="370" y="152" text-anchor="middle" font-size="23">C</text>
<text data-atom="H1" data-element="H" x="230" y="62" text-anchor="middle" font-size="23">H</text>
<text data-atom="H2" data-element="H" x="230" y="242" text-anchor="middle" font-size="23">H</text>
<text data-atom="H3" data-element="H" x="370" y="62" text-anchor="middle" font-size="23">H</text>
<text data-atom="H4" data-element="H" x="370" y="242" text-anchor="middle" font-size="23">H</text>
<circle data-owner="C1" data-electron="dot" data-kind="bond" data-edge="C1-C2" cx="295.000" cy="136.000" r="3.5" fill="#8c4c3f"/>
<path data-owner="C2" data-electron="cross" data-kind="bond" data-edge="C1-C2" d="M301.000 132.000l8 8m-8 0l8 -8" stroke="#574333" stroke-width="2"/>
<circle data-owner="C1" data-electron="dot" data-kind="bond" data-edge="C1-C2" cx="295.000" cy="154.000" r="3.5" fill="#8c4c3f"/>
<path data-owner="C2" data-electron="cross" data-kind="bond" data-edge="C1-C2" d="M301.000 150.000l8 8m-8 0l8 -8" stroke="#574333" stroke-width="2"/>
<circle data-owner="C1" data-electron="dot" data-kind="bond" data-edge="C1-H1" cx="230.000" cy="105.000" r="3.5" fill="#8c4c3f"/>
<path data-owner="H1" data-electron="cross" data-kind="bond" data-edge="C1-H1" d="M226.000 91.000l8 8m-8 0l8 -8" stroke="#574333" stroke-width="2"/>
<circle data-owner="C1" data-electron="dot" data-kind="bond" data-edge="C1-H2" cx="230.000" cy="185.000" r="3.5" fill="#8c4c3f"/>
<path data-owner="H2" data-electron="cross" data-kind="bond" data-edge="C1-H2" d="M226.000 191.000l8 8m-8 0l8 -8" stroke="#574333" stroke-width="2"/>
<path data-owner="C2" data-electron="cross" data-kind="bond" data-edge="C2-H3" d="M366.000 101.000l8 8m-8 0l8 -8" stroke="#574333" stroke-width="2"/>
<circle data-owner="H3" data-electron="dot" data-kind="bond" data-edge="C2-H3" cx="370.000" cy="95.000" r="3.5" fill="#8c4c3f"/>
<path data-owner="C2" data-electron="cross" data-kind="bond" data-edge="C2-H4" d="M366.000 181.000l8 8m-8 0l8 -8" stroke="#574333" stroke-width="2"/>
<circle data-owner="H4" data-electron="dot" data-kind="bond" data-edge="C2-H4" cx="370.000" cy="195.000" r="3.5" fill="#8c4c3f"/>
<text x="25" y="278" font-size="17">• left C · × right C</text>
<text x="25" y="303" font-size="17">Each H uses the opposite mark to its bonded C.</text>
</g>
</g></svg>
