<svg xmlns="http://www.w3.org/2000/svg" width="760" height="520" viewBox="0 0 760 520" role="img" aria-labelledby="title desc">
<title id="title">Equal time intervals halve the activity</title><desc id="desc">An idealised exponential curve falls from 800 becquerels at zero hours to 400 at two hours, 200 at four hours and 100 at six hours. The half-life is two hours.</desc>
<rect width="760" height="520" fill="#faf5ec" rx="4"/>
<text x="32" y="34" font-family="Georgia,serif" font-size="24" fill="#332b29">Activity and half-life</text>
<g stroke="#ddd2c5" stroke-width="1">
<path d="M90 400.0H650"/>
<path d="M90 320.0H650"/>
<path d="M90 240.0H650"/>
<path d="M90 160.0H650"/>
<path d="M90 80.0H650"/>
</g><g font-family="Arial,sans-serif" font-size="17" fill="#473b35">
<text x="32" y="62">Activity / Bq</text>
<text x="78" y="406.0" text-anchor="end">0</text>
<text x="78" y="326.0" text-anchor="end">200</text>
<text x="78" y="246.0" text-anchor="end">400</text>
<text x="78" y="166.0" text-anchor="end">600</text>
<text x="78" y="86.0" text-anchor="end">800</text>
<text x="90" y="429" text-anchor="middle">0</text>
<text x="160" y="429" text-anchor="middle">1</text>
<text x="230" y="429" text-anchor="middle">2</text>
<text x="300" y="429" text-anchor="middle">3</text>
<text x="370" y="429" text-anchor="middle">4</text>
<text x="440" y="429" text-anchor="middle">5</text>
<text x="510" y="429" text-anchor="middle">6</text>
<text x="580" y="429" text-anchor="middle">7</text>
<text x="650" y="429" text-anchor="middle">8</text>
<text x="582" y="460">Time / h</text></g>
<path d="M90 72V400H661" fill="none" stroke="#473b35" stroke-width="2"/>
<polyline points="90.00,80.00 93.50,85.50 97.00,90.90 100.50,96.21 104.00,101.43 107.50,106.56 111.00,111.60 114.50,116.55 118.00,121.42 121.50,126.21 125.00,130.91 128.50,135.54 132.00,140.08 135.50,144.54 139.00,148.93 142.50,153.25 146.00,157.49 149.50,161.65 153.00,165.75 156.50,169.77 160.00,173.73 163.50,177.61 167.00,181.43 170.50,185.19 174.00,188.88 177.50,192.51 181.00,196.07 184.50,199.57 188.00,203.02 191.50,206.40 195.00,209.73 198.50,213.00 202.00,216.21 205.50,219.37 209.00,222.47 212.50,225.52 216.00,228.52 219.50,231.46 223.00,234.36 226.50,237.20 230.00,240.00 233.50,242.75 237.00,245.45 240.50,248.11 244.00,250.71 247.50,253.28 251.00,255.80 254.50,258.28 258.00,260.71 261.50,263.10 265.00,265.46 268.50,267.77 272.00,270.04 275.50,272.27 279.00,274.47 282.50,276.62 286.00,278.74 289.50,280.83 293.00,282.87 296.50,284.89 300.00,286.86 303.50,288.81 307.00,290.72 310.50,292.59 314.00,294.44 317.50,296.25 321.00,298.04 324.50,299.79 328.00,301.51 331.50,303.20 335.00,304.86 338.50,306.50 342.00,308.10 345.50,309.68 349.00,311.23 352.50,312.76 356.00,314.26 359.50,315.73 363.00,317.18 366.50,318.60 370.00,320.00 373.50,321.37 377.00,322.73 380.50,324.05 384.00,325.36 387.50,326.64 391.00,327.90 394.50,329.14 398.00,330.36 401.50,331.55 405.00,332.73 408.50,333.88 412.00,335.02 415.50,336.14 419.00,337.23 422.50,338.31 426.00,339.37 429.50,340.41 433.00,341.44 436.50,342.44 440.00,343.43 443.50,344.40 447.00,345.36 450.50,346.30 454.00,347.22 457.50,348.13 461.00,349.02 464.50,349.89 468.00,350.75 471.50,351.60 475.00,352.43 478.50,353.25 482.00,354.05 485.50,354.84 489.00,355.62 492.50,356.38 496.00,357.13 499.50,357.87 503.00,358.59 506.50,359.30 510.00,360.00 513.50,360.69 517.00,361.36 520.50,362.03 524.00,362.68 527.50,363.32 531.00,363.95 534.50,364.57 538.00,365.18 541.50,365.78 545.00,366.36 548.50,366.94 552.00,367.51 555.50,368.07 559.00,368.62 562.50,369.16 566.00,369.69 569.50,370.21 573.00,370.72 576.50,371.22 580.00,371.72 583.50,372.20 587.00,372.68 590.50,373.15 594.00,373.61 597.50,374.06 601.00,374.51 604.50,374.95 608.00,375.38 611.50,375.80 615.00,376.22 618.50,376.62 622.00,377.03 625.50,377.42 629.00,377.81 632.50,378.19 636.00,378.56 639.50,378.93 643.00,379.29 646.50,379.65 650.00,380.00" fill="none" stroke="#812e3c" stroke-width="3"/>
<g fill="none" stroke="#987b42" stroke-width="1.5" stroke-dasharray="5 5">
<path d="M90 240.0H230V400"/>
<path d="M90 320.0H370V400"/>
<path d="M90 360.0H510V400"/>
</g><g fill="#812e3c">
<circle cx="90" cy="80.0" r="4"/>
<circle cx="230" cy="240.0" r="4"/>
<circle cx="370" cy="320.0" r="4"/>
<circle cx="510" cy="360.0" r="4"/>
</g><g font-family="Arial,sans-serif" font-size="17" fill="#473b35">
<text x="240" y="223">400 Bq</text><text x="380" y="303">200 Bq</text><text x="520" y="343">100 Bq</text>
<text x="32" y="496">Original model curve · half-life = 2 h · not measured data</text></g></svg>
